<svg width="30" height="30" viewBox="0 0 30 30" fill="none" xmlns="http://www.w3.org/2000/svg">
<path d="M15.0335 7.26563C19.2522 7.26563 22.7344 10.7478 22.7344 14.9665C22.7344 19.2522 19.2522 22.6674 15.0335 22.6674C10.7478 22.6674 7.33259 19.2522 7.33259 14.9665C7.33259 10.7478 10.7478 7.26563 15.0335 7.26563ZM15.0335 19.9888C17.779 19.9888 19.9888 17.779 19.9888 14.9665C19.9888 12.221 17.779 10.0112 15.0335 10.0112C12.221 10.0112 10.0112 12.221 10.0112 14.9665C10.0112 17.779 12.2879 19.9888 15.0335 19.9888ZM24.8103 6.99777C24.8103 5.9933 24.0067 5.18973 23.0022 5.18973C21.9978 5.18973 21.1942 5.9933 21.1942 6.99777C21.1942 8.00223 21.9978 8.8058 23.0022 8.8058C24.0067 8.8058 24.8103 8.00223 24.8103 6.99777ZM29.8996 8.8058C30.0335 11.2835 30.0335 18.7165 29.8996 21.1942C29.7656 23.6049 29.2299 25.6808 27.4888 27.4888C25.7478 29.2299 23.6049 29.7656 21.1942 29.8996C18.7165 30.0335 11.2835 30.0335 8.8058 29.8996C6.39509 29.7656 4.3192 29.2299 2.51116 27.4888C0.770089 25.6808 0.234375 23.6049 0.100446 21.1942C-0.0334821 18.7165 -0.0334821 11.2835 0.100446 8.8058C0.234375 6.39509 0.770089 4.25223 2.51116 2.51116C4.3192 0.770089 6.39509 0.234375 8.8058 0.100446C11.2835 -0.0334821 18.7165 -0.0334821 21.1942 0.100446C23.6049 0.234375 25.7478 0.770089 27.4888 2.51116C29.2299 4.25223 29.7656 6.39509 29.8996 8.8058ZM26.6853 23.8058C27.4888 21.8638 27.2879 17.1763 27.2879 14.9665C27.2879 12.8237 27.4888 8.13616 26.6853 6.12723C26.1496 4.85491 25.1451 3.78348 23.8728 3.31473C21.8638 2.51116 17.1763 2.71205 15.0335 2.71205C12.8237 2.71205 8.13616 2.51116 6.1942 3.31473C4.85491 3.85045 3.85045 4.85491 3.31473 6.12723C2.51116 8.13616 2.71205 12.8237 2.71205 14.9665C2.71205 17.1763 2.51116 21.8638 3.31473 23.8058C3.85045 25.1451 4.85491 26.1496 6.1942 26.6853C8.13616 27.4888 12.8237 27.2879 15.0335 27.2879C17.1763 27.2879 21.8638 27.4888 23.8728 26.6853C25.1451 26.1496 26.2165 25.1451 26.6853 23.8058Z" fill="white"/>
</svg>
